# Blender v2.79 (sub 0) OBJ File: ''
# www.blender.org
o Suzanne
v 0.483280 0.259509 0.776873
v 0.294953 0.363987 0.804907
v 0.269020 0.139055 0.806381
v -0.269020 0.139055 0.806381
v -0.294953 0.363987 0.804907
v -0.483280 0.259509 0.776873
v -0.633789 -0.057359 -0.410556
v -0.663321 -0.079504 -0.155381
v -0.850440 -0.114564 -0.157223
v 0.663321 -0.079504 -0.155381
v 0.633789 -0.057359 -0.410556
v 0.850440 -0.114564 -0.157223
v -1.192458 0.040631 -0.469975
v -0.868674 0.463350 -0.380239
v -1.291716 0.469157 -0.467237
v 1.291716 0.469157 -0.467237
v 1.192458 0.040631 -0.469975
v 0.822768 0.331336 -0.409609
v -0.859646 0.368599 -0.193394
v 0.859646 0.368599 -0.193394
v -0.972877 0.294464 -0.348509
v -1.199393 0.331910 -0.449522
v 1.199393 0.331910 -0.449522
v 0.972877 0.294464 -0.348509
v -0.834827 0.034626 -0.310858
v 0.834827 0.034626 -0.310858
v 0.000000 0.475523 -0.914652
v -0.174135 -0.443704 0.295115
v -0.220840 -0.184282 0.531800
v -0.783689 0.113242 0.416992
v 0.783689 0.113242 0.416992
v 0.220840 -0.184282 0.531800
v 0.204572 -0.405374 0.323368
v 0.721550 0.694042 -0.373143
v -0.744705 0.413048 0.320177
v 0.744705 0.413048 0.320177
v -0.249803 0.772030 0.701338
v 0.000000 0.420633 0.637038
v -0.464098 0.520895 0.481216
v 0.249803 0.772030 0.701338
v 0.464098 0.520895 0.481216
v -0.347624 0.965523 0.189529
v 0.468039 0.900587 0.151109
v -0.182638 0.934310 -0.494337
v 0.000000 -0.245694 -0.695104
v -0.585379 -0.067866 0.577890
v 0.585379 -0.067866 0.577890
v -0.386798 -0.963396 0.493567
v 0.360072 -0.927514 0.572301
v 0.305719 -0.904663 0.396160
v 0.055934 -0.881606 0.679454
v -0.804609 0.402105 0.630726
v 0.804609 0.402105 0.630726
v 0.000000 0.371412 0.810030
v -0.412084 0.390727 0.751665
v -0.283403 0.404630 0.765138
v -0.556169 0.261355 0.680700
v 0.283403 0.404630 0.765138
v 0.412084 0.390727 0.751665
v 0.556169 0.261355 0.680700
v -0.410277 0.084912 0.718469
v 0.410277 0.084912 0.718469
v 0.094814 -0.120196 0.795684
v 0.111139 -0.281348 0.765550
v -0.112200 -0.179949 0.795176
v 0.000000 -0.140625 0.742188
v -0.220389 0.125952 0.749283
v 0.000000 -0.187500 0.796875
v 0.000000 -0.195313 0.750000
v -0.064313 -0.809886 0.710145
v -0.195227 0.301884 0.758799
v 0.195227 0.301884 0.758799
v 0.230333 0.129458 0.757979
v -0.252177 0.653553 0.851777
v 0.252177 0.653553 0.851777
v -0.633637 0.242150 0.566680
v -0.464791 0.413323 0.544234
v 0.633637 0.242150 0.566680
v 0.464791 0.413323 0.544234
v -0.156250 0.437500 0.648438
v 0.156250 0.437500 0.648438
v -0.107602 0.163714 0.637744
v 0.107602 0.163714 0.637744
v -0.490049 0.046442 0.565288
v 0.490049 0.046442 0.565288
vt 0.328880 0.799437
vt 0.302859 0.804894
vt 0.312366 0.777453
vt 0.069809 0.776646
vt 0.078088 0.804483
vt 0.052335 0.797876
vt 0.843617 0.534552
vt 0.897469 0.500666
vt 0.892597 0.556911
vt 0.572425 0.679855
vt 0.628012 0.707047
vt 0.582787 0.733645
vt 0.783076 0.631975
vt 0.737933 0.531167
vt 0.702105 0.623954
vt 0.773575 0.796991
vt 0.694666 0.799301
vt 0.734929 0.690845
vt 0.688449 0.510216
vt 0.775804 0.662530
vt 0.657560 0.542808
vt 0.641961 0.586031
vt 0.597355 0.572643
vt 0.532120 0.865638
vt 0.481169 0.862217
vt 0.538440 0.817313
vt 0.621034 0.499852
vt 0.457936 0.804252
vt 0.598091 0.437650
vt 0.430903 0.873895
vt 0.411968 0.750946
vt 0.582661 0.482236
vt 0.460977 0.759216
vt 0.673033 0.615540
vt 0.555616 0.890435
vt 0.760692 0.290170
vt 0.760274 0.405871
vt 0.698280 0.299742
vt 0.333416 0.434972
vt 0.315745 0.554524
vt 0.270701 0.546432
vt 0.562036 0.187828
vt 0.596909 0.118151
vt 0.748905 0.146532
vt 0.696511 0.243350
vt 0.321327 0.699644
vt 0.169327 0.728023
vt 0.141562 0.665021
vt 0.268933 0.602824
vt 0.364760 0.548154
vt 0.330107 0.585199
vt 0.757685 0.260975
vt 0.816402 0.183633
vt 0.388825 0.662542
vt 0.943838 0.126998
vt 0.977560 0.202590
vt 0.882832 0.173919
vt 0.555228 0.651053
vt 0.516264 0.719176
vt 0.455256 0.672255
vt 0.887382 0.279421
vt 0.507141 0.541448
vt 0.441664 0.576449
vt 0.832871 0.374530
vt 0.412887 0.442637
vt 0.633255 0.365329
vt 0.205677 0.480844
vt 0.106798 0.632360
vt 0.687679 0.119691
vt 0.260099 0.726485
vt 0.473786 0.136912
vt 0.043067 0.717494
vt 0.051350 0.697199
vt 0.000000 0.671069
vt 0.017903 0.661268
vt 0.480167 0.198327
vt 0.820662 0.118899
vt 0.393086 0.727277
vt 0.999543 0.174856
vt 0.571440 0.671764
vt 0.335507 0.313919
vt 0.340594 0.287066
vt 0.308089 0.342602
vt 0.341092 0.136816
vt 0.336115 0.109831
vt 0.308703 0.080930
vt 0.239664 0.359859
vt 0.273825 0.313030
vt 0.240062 0.063414
vt 0.274206 0.110482
vt 0.164446 0.111110
vt 0.194500 0.191435
vt 0.163144 0.190138
vt 0.183258 0.233687
vt 0.203534 0.211734
vt 0.277692 0.270743
vt 0.186479 0.211718
vt 0.427581 0.011703
vt 0.427581 0.000000
vt 0.441181 0.011386
vt 0.045419 0.218747
vt 0.014165 0.275961
vt 0.014009 0.147521
vt 0.031212 0.202795
vt 0.354460 0.210034
vt 0.317459 0.266523
vt 0.317776 0.157309
vt 0.278923 0.149967
vt 0.346146 0.400653
vt 0.347124 0.022718
vt 0.393031 0.281305
vt 0.393733 0.142925
vt 0.423933 0.286061
vt 0.424864 0.138349
vt 0.278009 0.423087
vt 0.278714 0.000000
vt 0.164338 0.312160
vt -0.000130 0.817401
vt 0.047199 0.853411
vt 0.380427 0.821272
vt 0.331546 0.855146
vt 0.123146 0.821929
vt 0.257070 0.820323
vt 0.111050 0.751936
vt 0.272262 0.750935
vt 0.009229 0.760370
vt 0.373608 0.763882
vn 0.6666 0.0924 0.7397
vn -0.2068 0.5179 0.8300
vn -0.2676 -0.5967 0.7565
vn 0.2029 -0.5447 0.8137
vn 0.2079 0.5239 0.8260
vn -0.6096 0.1556 0.7773
vn -0.3031 -0.6444 -0.7020
vn -0.5315 -0.8226 0.2023
vn -0.4277 -0.6157 0.6618
vn 0.6118 -0.7686 0.1870
vn 0.2170 -0.7273 -0.6511
vn 0.4434 -0.6064 0.6600
vn -0.8923 -0.4426 -0.0894
vn -0.5203 0.6834 -0.5121
vn -0.8523 0.3848 -0.3543
vn 0.7736 0.6050 -0.1885
vn 0.7943 -0.5927 -0.1336
vn 0.3285 0.3882 -0.8611
vn -0.9069 0.0196 0.4210
vn 0.9092 0.3027 0.2858
vn -0.5158 -0.2986 0.8030
vn -0.2063 0.0568 0.9768
vn 0.5700 -0.0217 0.8214
vn 0.5437 -0.2672 0.7956
vn -0.4133 0.1695 0.8947
vn 0.4039 0.2319 0.8849
vn 0.0739 0.1867 -0.9796
vn -0.5394 -0.6774 -0.5002
vn -0.6969 -0.6338 0.3357
vn -0.9596 -0.2727 0.0699
vn 0.9525 -0.3021 0.0379
vn 0.7335 -0.4513 0.5083
vn 0.6989 -0.6184 -0.3592
vn 0.6777 0.6519 -0.3403
vn -0.8416 0.5072 0.1856
vn 0.8465 0.4955 0.1948
vn 0.0834 0.9924 -0.0902
vn 0.0937 0.9256 0.3667
vn -0.2795 0.9556 0.0929
vn -0.1227 0.9924 -0.0031
vn 0.4415 0.8971 0.0176
vn -0.2599 0.9281 0.2666
vn 0.4419 0.8533 0.2768
vn -0.0968 0.8935 -0.4385
vn 0.0059 -0.7325 -0.6808
vn -0.5654 -0.7911 0.2332
vn 0.5562 -0.7669 0.3201
vn -0.7370 -0.6628 -0.1322
vn 0.7468 -0.5915 0.3038
vn 0.5316 -0.5464 -0.6472
vn 0.2022 -0.4999 0.8421
vn -0.7518 0.2977 0.5884
vn 0.7527 0.2954 0.5884
vn 0.0040 0.0159 0.9999
vn 0.2311 0.3817 -0.8949
vn -0.2320 -0.2121 0.9493
vn -0.4043 -0.1778 0.8972
vn 0.2216 -0.2124 0.9517
vn -0.2311 0.3817 -0.8949
vn 0.3939 -0.1214 0.9111
vn -0.2865 -0.5545 0.7813
vn 0.3004 -0.5282 0.7942
vn 0.2558 -0.1141 0.9600
vn 0.4744 -0.0733 0.8772
vn -0.1870 0.0355 0.9817
vn -0.1962 0.1936 0.9613
vn -0.1390 -0.1342 0.9812
vn -0.2461 0.9117 -0.3291
vn 0.0000 -0.2519 0.9677
vn 0.0000 0.7890 0.6144
vn 0.0000 0.4306 0.9026
vn -0.1631 -0.3406 0.9260
vn -0.1747 -0.0374 0.9839
vn 0.0511 -0.1227 0.9911
vn 0.1508 -0.1631 0.9750
vn 0.1265 0.3659 0.9220
vn -0.1222 0.3613 0.9244
vn -0.8014 0.0743 0.5935
vn -0.5296 0.7471 0.4018
vn 0.8033 0.0648 0.5921
vn 0.5296 0.7471 0.4018
vn 0.3038 0.6917 0.6552
vn -0.3038 0.6917 0.6552
vn 0.6787 -0.3573 0.6416
vn -0.7225 -0.4329 0.5391
vn -0.3964 -0.7261 0.5619
vn 0.3846 -0.7326 0.5616
f 1/1/1 2/2/2 3/3/3
f 4/4/4 5/5/5 6/6/6
f 7/7/7 8/8/8 9/9/9
f 10/10/10 11/11/11 12/12/12
f 7/7/7 13/13/13 14/14/14
f 13/13/13 15/15/15 14/14/14
f 16/16/16 17/17/17 18/18/18
f 17/17/17 11/11/11 18/18/18
f 15/15/15 19/19/19 14/14/14
f 20/20/20 16/16/16 18/18/18
f 7/7/7 9/9/9 13/13/13
f 12/12/12 11/11/11 17/17/17
f 21/21/21 22/22/22 13/23/13
f 23/24/23 24/25/24 17/26/17
f 25/27/25 21/21/21 13/23/13
f 17/26/17 24/25/24 26/28/26
f 8/29/8 19/19/19 25/27/25
f 19/19/19 21/21/21 25/27/25
f 24/25/24 20/30/20 26/28/26
f 20/30/20 10/31/10 26/28/26
f 25/27/25 9/32/9 8/29/8
f 12/33/12 26/28/26 10/31/10
f 22/22/22 21/21/21 15/34/15
f 21/21/21 19/19/19 15/34/15
f 20/30/20 24/25/24 16/35/16
f 24/25/24 23/24/23 16/35/16
f 25/27/25 13/23/13 9/32/9
f 12/33/12 17/26/17 26/28/26
f 22/22/22 15/34/15 13/23/13
f 16/35/16 23/24/23 17/26/17
f 14/36/14 27/37/27 7/38/7
f 27/39/27 18/40/18 11/41/11
f 28/42/28 29/43/29 30/44/30
f 28/42/28 30/44/30 8/45/8
f 31/46/31 32/47/32 33/48/33
f 31/46/31 33/48/33 10/49/10
f 18/40/18 34/50/34 20/51/20
f 14/36/14 19/52/19 35/53/35
f 20/51/20 34/50/34 36/54/36
f 19/52/19 30/44/30 35/53/35
f 31/46/31 20/51/20 36/54/36
f 37/55/37 38/56/38 39/57/39
f 38/58/38 40/59/40 41/60/41
f 39/57/39 38/56/38 42/61/42
f 38/58/38 41/60/41 42/62/42
f 41/60/41 43/63/43 42/62/42
f 35/53/35 39/57/39 42/61/42
f 43/63/43 41/60/41 36/54/36
f 35/53/35 42/61/42 14/36/14
f 43/63/43 36/54/36 34/50/34
f 14/36/14 42/61/42 44/64/44
f 14/36/14 44/64/44 27/37/27
f 27/39/27 34/50/34 18/40/18
f 44/65/44 34/50/34 27/39/27
f 42/62/42 43/63/43 34/50/34
f 42/62/42 34/50/34 44/65/44
f 7/38/7 27/37/27 45/66/45
f 27/39/27 11/41/11 45/67/45
f 8/45/8 30/44/30 19/52/19
f 31/46/31 10/49/10 20/51/20
f 28/42/28 8/45/8 45/66/45
f 45/67/45 10/49/10 33/48/33
f 45/67/45 33/48/33 28/68/28
f 8/45/8 7/38/7 45/66/45
f 11/41/11 10/49/10 45/67/45
f 30/44/30 29/43/29 46/69/46
f 32/47/32 31/46/31 47/70/47
f 28/42/28 48/71/48 29/43/29
f 32/47/32 49/72/49 33/48/33
f 49/72/49 50/73/50 33/48/33
f 49/72/49 51/74/51 48/75/48
f 49/72/49 48/75/48 50/73/50
f 28/42/28 50/76/50 48/71/48
f 28/68/28 33/48/33 50/73/50
f 30/44/30 52/77/52 35/53/35
f 53/78/53 31/46/31 36/54/36
f 35/53/35 52/77/52 39/57/39
f 52/77/52 37/55/37 39/57/39
f 40/59/40 53/78/53 41/60/41
f 53/78/53 36/54/36 41/60/41
f 37/55/37 54/79/54 38/56/38
f 54/80/54 40/59/40 38/58/38
f 55/81/55 56/82/56 57/83/57
f 58/84/58 59/85/59 60/86/60
f 57/83/57 46/87/46 61/88/61
f 47/89/47 60/86/60 62/90/62
f 32/91/32 63/92/63 64/93/64
f 65/94/65 66/95/66 67/96/67
f 66/95/66 63/92/63 67/96/67
f 65/94/65 64/93/64 63/92/63
f 68/97/68 65/94/65 63/92/63
f 65/94/65 68/97/68 66/95/66
f 69/98/69 68/99/70 66/100/71
f 68/97/68 63/92/63 66/95/66
f 70/101/72 64/93/64 65/94/65
f 70/101/72 65/94/65 48/102/48
f 64/93/64 70/101/72 49/103/49
f 70/101/72 51/104/51 49/103/49
f 51/104/51 70/101/72 48/102/48
f 67/96/67 54/105/54 71/106/73
f 72/107/74 54/105/54 67/96/67
f 72/107/74 67/96/67 73/108/75
f 73/108/75 67/96/67 63/92/63
f 46/87/46 65/94/65 67/96/67
f 46/87/46 67/96/67 61/88/61
f 73/108/75 63/92/63 47/89/47
f 73/108/75 47/89/47 62/90/62
f 52/109/52 46/87/46 57/83/57
f 47/89/47 53/110/53 60/86/60
f 74/111/76 52/109/52 56/82/56
f 52/109/52 57/83/57 56/82/56
f 60/86/60 53/110/53 58/84/58
f 53/110/53 75/112/77 58/84/58
f 74/111/76 56/82/56 54/105/54
f 56/82/56 71/106/73 54/105/54
f 72/107/74 58/84/58 54/105/54
f 58/84/58 75/112/77 54/105/54
f 54/105/54 37/113/37 74/111/76
f 40/114/40 54/105/54 75/112/77
f 74/111/76 37/113/37 52/109/52
f 40/114/40 75/112/77 53/110/53
f 52/109/52 30/115/30 46/87/46
f 31/116/31 53/110/53 47/89/47
f 46/87/46 29/117/29 65/94/65
f 32/91/32 47/89/47 63/92/63
f 48/102/48 65/94/65 29/117/29
f 32/91/32 64/93/64 49/103/49
f 76/118/78 6/6/6 77/119/79
f 1/1/1 78/120/80 79/121/81
f 6/6/6 5/5/5 77/119/79
f 2/2/2 1/1/1 79/121/81
f 77/119/79 5/5/5 80/122/82
f 2/2/2 79/121/81 81/123/83
f 80/122/82 5/5/5 82/124/84
f 2/2/2 81/123/83 83/125/85
f 5/5/5 4/4/4 82/124/84
f 3/3/3 2/2/2 83/125/85
f 82/124/84 4/4/4 84/126/86
f 3/3/3 83/125/85 85/127/87
f 4/4/4 6/6/6 84/126/86
f 1/1/1 3/3/3 85/127/87
f 84/126/86 6/6/6 76/118/78
f 1/1/1 85/127/87 78/120/80
