# Blender v3.0.1 OBJ File: 'houseanddooroblig2prog.blend'
# www.blender.org
o Table_Cube
v -20.510223 2.755911 -0.204514
v -20.510223 3.013386 -0.204514
v -20.872643 2.755911 -4.905404
v -20.872643 3.013386 -4.905404
v -11.031130 2.755911 -0.935309
v -11.031130 3.013386 -0.935309
v -11.393547 2.755911 -5.636199
v -11.393547 3.013386 -5.636199
v -11.920879 -0.022681 -5.037975
v -11.920879 2.849916 -5.037975
v -11.944160 -0.022681 -5.339941
v -11.944160 2.849916 -5.339941
v -11.618913 -0.022681 -5.061256
v -11.618913 2.849916 -5.061256
v -11.642194 -0.022681 -5.363222
v -11.642194 2.849916 -5.363222
v -20.500786 -0.022681 -4.376504
v -20.500786 2.849916 -4.376504
v -20.524067 -0.022681 -4.678470
v -20.524067 2.849916 -4.678470
v -20.198822 -0.022681 -4.399784
v -20.198822 2.849916 -4.399784
v -20.222103 -0.022681 -4.701750
v -20.222103 2.849916 -4.701750
v -11.622724 -0.022681 -1.170572
v -11.622724 2.849916 -1.170572
v -11.646004 -0.022681 -1.472539
v -11.646004 2.849916 -1.472539
v -11.320757 -0.022681 -1.193852
v -11.320757 2.849916 -1.193852
v -11.344037 -0.022681 -1.495819
v -11.344037 2.849916 -1.495819
v -20.202629 -0.022681 -0.509101
v -20.202629 2.849916 -0.509101
v -20.225910 -0.022681 -0.811067
v -20.225910 2.849916 -0.811067
v -19.900661 -0.022681 -0.532381
v -19.900661 2.849916 -0.532381
v -19.923943 -0.022681 -0.834348
v -19.923943 2.849916 -0.834348
vt 0.000000 0.851124
vt 1.000000 0.148876
vt 0.000000 0.148876
vt 0.449362 0.851124
vt 0.550638 0.148876
vt 0.550638 0.851124
vt 1.000000 0.851124
vt 0.000000 0.148876
vt 1.000000 0.148876
vt 0.449362 0.148876
vt 0.550638 0.851124
vt 0.550638 0.148876
vt 0.000000 0.851124
vt 1.000000 0.851124
vt 1.000000 0.851124
vt 0.000000 0.148876
vt 1.000000 0.148876
vt 0.443419 0.897129
vt 0.556581 0.102871
vt 0.443419 0.102871
vt 0.443419 0.897129
vt 0.556581 0.102871
vt 0.443419 0.102871
vt 0.556581 0.897129
vt 0.443419 0.102871
vt 0.556581 0.897129
vt 0.556581 0.102871
vt 0.556581 0.897129
vt 0.443419 0.897129
vt 0.556581 0.102871
vt 0.443419 0.897129
vt 0.556581 0.102871
vt 0.443419 0.102871
vt 0.443419 0.897129
vt 0.556581 0.102871
vt 0.443419 0.102871
vt 0.556581 0.897129
vt 0.443419 0.102871
vt 0.556581 0.897129
vt 0.556581 0.102871
vt 0.556581 0.897129
vt 0.443419 0.897129
vt 0.556581 0.102871
vt 0.443419 0.897129
vt 0.556581 0.102871
vt 0.443419 0.102871
vt 0.443419 0.897129
vt 0.556581 0.102871
vt 0.443419 0.102871
vt 0.556581 0.897129
vt 0.443419 0.102871
vt 0.556581 0.897129
vt 0.556581 0.102871
vt 0.556581 0.897129
vt 0.443419 0.897129
vt 0.556581 0.102871
vt 0.443419 0.897129
vt 0.556581 0.102871
vt 0.443419 0.102871
vt 0.443419 0.897129
vt 0.556581 0.102871
vt 0.443419 0.102871
vt 0.556581 0.897129
vt 0.443419 0.102871
vt 0.556581 0.897129
vt 0.556581 0.102871
vt 0.556581 0.897129
vt 0.443419 0.897129
vt 0.556581 0.102871
vt 0.449362 0.148876
vt 0.000000 0.851124
vt 0.449362 0.851124
vt 0.556581 0.897129
vt 0.443419 0.897129
vt 0.443419 0.102871
vt 0.556581 0.897129
vt 0.443419 0.897129
vt 0.443419 0.102871
vt 0.556581 0.897129
vt 0.443419 0.897129
vt 0.443419 0.102871
vt 0.556581 0.897129
vt 0.443419 0.897129
vt 0.443419 0.102871
vn -0.9970 0.0000 0.0769
vn -0.0769 0.0000 -0.9970
vn 0.9970 0.0000 -0.0769
vn 0.0769 0.0000 0.9970
vn 0.0000 -1.0000 -0.0000
vn 0.0000 1.0000 -0.0000
s off
f 2/1/1 3/2/1 1/3/1
f 4/4/2 7/5/2 3/6/2
f 8/7/3 5/8/3 7/9/3
f 6/10/4 1/11/4 5/12/4
f 7/9/5 1/13/5 3/14/5
f 4/15/6 6/16/6 8/17/6
f 10/18/1 11/19/1 9/20/1
f 12/21/2 15/22/2 11/23/2
f 16/24/3 13/25/3 15/22/3
f 14/26/4 9/20/4 13/27/4
f 15/28/5 9/20/5 11/29/5
f 12/21/6 14/30/6 16/24/6
f 18/31/1 19/32/1 17/33/1
f 20/34/2 23/35/2 19/36/2
f 24/37/3 21/38/3 23/35/3
f 22/39/4 17/33/4 21/40/4
f 23/41/5 17/33/5 19/42/5
f 20/34/6 22/43/6 24/37/6
f 26/44/1 27/45/1 25/46/1
f 28/47/2 31/48/2 27/49/2
f 32/50/3 29/51/3 31/48/3
f 30/52/4 25/46/4 29/53/4
f 31/54/5 25/46/5 27/55/5
f 28/47/6 30/56/6 32/50/6
f 34/57/1 35/58/1 33/59/1
f 36/60/2 39/61/2 35/62/2
f 40/63/3 37/64/3 39/61/3
f 38/65/4 33/59/4 37/66/4
f 39/67/5 33/59/5 35/68/5
f 36/60/6 38/69/6 40/63/6
f 2/1/1 4/15/1 3/2/1
f 4/4/2 8/70/2 7/5/2
f 8/7/3 6/71/3 5/8/3
f 6/10/4 2/72/4 1/11/4
f 7/9/5 5/8/5 1/13/5
f 4/15/6 2/1/6 6/16/6
f 10/18/1 12/73/1 11/19/1
f 12/21/2 16/24/2 15/22/2
f 16/24/3 14/74/3 13/25/3
f 14/26/4 10/18/4 9/20/4
f 15/28/5 13/27/5 9/20/5
f 12/21/6 10/75/6 14/30/6
f 18/31/1 20/76/1 19/32/1
f 20/34/2 24/37/2 23/35/2
f 24/37/3 22/77/3 21/38/3
f 22/39/4 18/31/4 17/33/4
f 23/41/5 21/40/5 17/33/5
f 20/34/6 18/78/6 22/43/6
f 26/44/1 28/79/1 27/45/1
f 28/47/2 32/50/2 31/48/2
f 32/50/3 30/80/3 29/51/3
f 30/52/4 26/44/4 25/46/4
f 31/54/5 29/53/5 25/46/5
f 28/47/6 26/81/6 30/56/6
f 34/57/1 36/82/1 35/58/1
f 36/60/2 40/63/2 39/61/2
f 40/63/3 38/83/3 37/64/3
f 38/65/4 34/57/4 33/59/4
f 39/67/5 37/66/5 33/59/5
f 36/60/6 34/84/6 38/69/6
