# Blender v3.0.1 OBJ File: 'houseanddooroblig2.blend'
# www.blender.org
o TreeHouse_Cylinder
v -19.769218 0.062134 -6.834728
v -14.867957 23.778193 -7.876523
v -23.823009 0.062134 -3.889476
v -9.966693 23.778193 -6.834726
v -26.328388 0.062134 0.449970
v -5.912902 23.778193 -3.889475
v -26.852161 0.062134 5.433281
v -3.407522 23.778193 0.449972
v -25.303749 0.062134 10.198799
v -2.883755 23.778193 5.433283
v -21.950897 0.062134 13.922521
v -4.432166 23.778193 10.198800
v -17.373339 0.062134 15.960579
v -7.785020 23.778193 13.922521
v -12.362576 0.062134 15.960579
v -12.362576 23.778193 15.960579
v -7.785020 0.062134 13.922521
v -17.373339 23.778193 15.960579
v -4.432166 0.062134 10.198800
v -21.950897 23.778193 13.922521
v -2.883755 0.062134 5.433283
v -25.303749 23.778193 10.198799
v -3.418967 -0.108577 1.111142
v -26.852161 23.778193 5.433281
v -6.491214 -0.108577 -4.210147
v -26.328388 23.778193 0.449970
v -14.867957 0.062134 -7.876523
v -23.823009 23.778193 -3.889476
v -9.966693 0.062134 -6.834726
v -19.769218 23.778193 -6.834728
v -8.715155 23.778193 -9.645730
v -14.867957 23.778193 -10.953547
v -3.626226 23.778193 -5.948407
v -0.481096 23.778193 -0.500882
v 0.176415 23.778193 5.754920
v -1.767383 23.778193 11.737314
v -5.976390 23.778193 16.411886
v -11.722827 23.778193 18.970366
v -18.013088 23.778193 18.970366
v -23.759525 23.778193 16.411884
v -27.968533 23.778193 11.737311
v -29.912327 23.778193 5.754918
v -29.254818 23.778193 -0.500884
v -26.109688 23.778193 -5.948409
v -21.020756 23.778193 -9.645732
v -9.499624 29.587383 -6.315041
v -14.867957 24.664095 -10.953547
v -6.294508 29.587383 -3.986389
v -0.481096 24.664095 -0.500882
v -0.311662 27.750223 6.907046
v -1.508865 27.750223 10.591655
v -5.976390 24.664095 16.411886
v -13.257116 28.858433 18.332355
v -15.783186 28.858433 18.332355
v -23.759525 24.664095 16.411884
v -25.875912 27.528206 9.183713
v -26.872498 27.528206 6.116539
v -29.254818 24.664095 -0.500884
v -25.680424 28.095022 -7.769936
v -22.749516 28.095022 -9.899366
v -10.287869 29.587383 -4.544611
v -14.867957 24.664095 -7.876523
v -7.734705 29.587383 -2.689631
v -3.407522 24.664095 0.449972
v -2.196449 27.750223 6.708947
v -3.150128 27.750223 9.644070
v -7.785020 24.664095 13.922521
v -13.514030 28.858433 17.123672
v -15.526272 28.858433 17.123672
v -21.950897 24.664095 13.922521
v -24.509682 27.528206 8.394917
v -25.303547 27.528206 5.951636
v -26.328388 24.664095 0.449970
v -24.363438 28.095022 -6.584118
v -22.028706 28.095022 -8.280400
v -21.676376 0.062134 -11.407707
v -26.109688 0.062134 -5.948409
v -29.254818 0.062134 -0.500884
v -29.912327 0.062134 5.754918
v -27.968533 0.062134 11.737311
v -23.759525 0.062134 16.411884
v -18.013088 0.062134 18.970366
v -11.722827 0.062134 18.970366
v -4.542224 0.062134 17.764103
v -0.333218 0.062134 13.089527
v 0.176415 0.062134 5.754920
v 0.169592 -0.108577 -0.054852
v -3.687156 -0.108577 -6.734933
v -15.523576 0.062134 -12.715522
v -8.715155 0.062134 -9.645730
v -27.968533 11.920163 11.737311
v -14.867957 11.920163 -10.953547
v -8.715155 11.920163 -9.645730
v -26.109688 11.920163 -5.948409
v -21.020756 11.920163 -9.645732
v 0.176415 11.920163 5.754920
v -1.767383 11.920163 11.737314
v -18.013088 11.920163 18.970366
v -23.759525 11.920163 16.411884
v -5.976390 11.920163 16.411886
v -3.687156 13.261662 -6.734933
v -29.912327 11.920163 5.754918
v -11.722827 11.920163 18.970366
v 0.169592 13.261662 -0.054852
v -29.254818 11.920163 -0.500884
v -23.823009 11.920163 -3.889476
v -26.328388 11.920163 0.449970
v -26.852161 11.920163 5.433281
v -25.303749 11.920163 10.198799
v -21.950897 11.920163 13.922521
v -17.373339 11.920163 15.960579
v -19.769218 11.920163 -6.834728
v -14.867957 11.920163 -7.876523
v -9.966693 11.920163 -6.834726
v -6.491214 13.261662 -4.210147
v -3.418967 13.261662 1.111142
v -2.883755 11.920163 5.433283
v -4.432166 11.920163 10.198800
v -7.785020 11.920163 13.922521
v -12.362576 11.920163 15.960579
v -17.318588 0.062134 -7.355625
v -17.944357 23.778193 -10.299639
v -18.808735 26.379557 -10.426455
v -18.448330 26.379557 -8.078461
v -19.993168 0.062134 -19.519276
v -18.599977 11.920163 -12.061616
v -17.318588 11.920163 -7.355625
v -3.871886 23.778193 14.074602
v -6.108593 0.062134 12.060662
v -3.742627 26.207159 13.501774
v -5.467574 26.207159 11.783297
v 5.019940 0.062134 21.368359
v -2.437721 11.920163 15.426813
v -6.108593 11.920163 12.060662
vt 0.287909 0.701474
vt 0.251787 0.565418
vt 0.287909 0.565428
vt 0.141358 0.113868
vt 0.114891 0.167446
vt 0.088237 0.139812
vt 0.202543 0.136230
vt 0.152049 0.143296
vt 0.272242 0.103534
vt 0.227044 0.143272
vt 0.262615 0.000000
vt 0.315267 0.163850
vt 0.251545 0.150314
vt 0.343290 0.221394
vt 0.290583 0.183111
vt 0.345485 0.285362
vt 0.312906 0.228951
vt 0.321473 0.344692
vt 0.314654 0.279906
vt 0.275404 0.389126
vt 0.295526 0.327168
vt 0.215245 0.410981
vt 0.258828 0.362564
vt 0.151398 0.406477
vt 0.210907 0.379973
vt 0.115043 0.352422
vt 0.160047 0.376386
vt 0.042330 0.339781
vt 0.099360 0.332324
vt 0.000000 0.410981
vt 0.576561 0.806386
vt 0.418768 0.897406
vt 0.344660 0.730932
vt 0.040082 0.263820
vt 0.083678 0.312226
vt 0.079897 0.219258
vt 0.071373 0.262746
vt 0.467164 0.468580
vt 0.374898 0.368884
vt 0.431092 0.354631
vt 0.844943 0.656286
vt 0.894455 0.647282
vt 0.894455 0.656296
vt 0.926430 0.631578
vt 0.576562 0.656822
vt 0.615154 0.604586
vt 0.631079 0.655622
vt 0.944637 0.656289
vt 0.984380 0.615862
vt 0.986813 0.656267
vt 0.396646 0.262139
vt 0.451802 0.294279
vt 0.452055 0.294160
vt 0.442261 0.600898
vt 0.387803 0.630370
vt 0.385108 0.621857
vt 0.011785 0.466411
vt 0.043063 0.459590
vt 0.042849 0.468596
vt 0.087664 0.470532
vt 0.098479 0.410981
vt 0.577780 0.552316
vt 0.626656 0.560059
vt 0.576562 0.604586
vt 0.130485 0.411833
vt 0.138481 0.471884
vt 0.186515 0.472417
vt 0.186730 0.463411
vt 0.219259 0.446117
vt 0.804663 0.657451
vt 0.751400 0.619024
vt 0.776389 0.619784
vt 0.506292 0.647371
vt 0.467890 0.658940
vt 0.003101 0.758842
vt 0.025889 0.713512
vt 0.048053 0.758084
vt 0.598507 0.220021
vt 0.616345 0.167164
vt 0.623827 0.238432
vt 0.597065 0.130948
vt 0.597065 0.163057
vt 0.598507 0.075891
vt 0.616345 0.126856
vt 0.553362 0.028890
vt 0.623827 0.057498
vt 0.523508 0.019176
vt 0.563000 0.012195
vt 0.461473 0.031301
vt 0.488663 0.000762
vt 0.492491 0.025239
vt 0.391273 0.050510
vt 0.451802 0.001523
vt 0.387651 0.076416
vt 0.399682 0.059857
vt 0.376782 0.147873
vt 0.376170 0.071297
vt 0.391492 0.208912
vt 0.345485 0.147861
vt 0.406151 0.202389
vt 0.410773 0.235466
vt 0.461473 0.264508
vt 0.421510 0.223541
vt 0.530123 0.290888
vt 0.567052 0.297444
vt 0.532006 0.308821
vt 0.578273 0.250923
vt 0.595439 0.267938
vt 0.751584 0.551335
vt 0.805909 0.561844
vt 0.738669 0.591638
vt 0.727493 0.043928
vt 0.668231 0.034910
vt 0.742324 0.000000
vt 0.812255 0.604586
vt 0.828432 0.604595
vt 0.694522 0.646312
vt 0.694522 0.655320
vt 0.827850 0.549988
vt 0.876388 0.561055
vt 0.805953 0.600685
vt 0.927078 0.551375
vt 0.876388 0.552126
vt 0.688178 0.550704
vt 0.699617 0.591250
vt 0.791468 0.043954
vt 0.779169 0.000014
vt 0.503235 0.582530
vt 0.560182 0.578442
vt 0.971158 0.547866
vt 0.933299 0.586563
vt 0.755923 0.655967
vt 0.146863 0.758842
vt 0.098928 0.749076
vt 0.144843 0.721307
vt 0.098904 0.758084
vt 0.663136 0.575655
vt 0.657439 0.550878
vt 0.814130 0.017499
vt 0.820277 0.043976
vt 0.183642 0.592965
vt 0.132734 0.712979
vt 0.135608 0.592431
vt 0.047732 0.878662
vt 0.002460 1.000000
vt 0.002781 0.879421
vt 0.556260 0.447380
vt 0.501114 0.335758
vt 0.576562 0.308821
vt 0.147049 0.771389
vt 0.266628 0.769342
vt 0.264147 0.871404
vt 0.098584 0.878662
vt 0.047412 0.999241
vt 0.146543 0.879421
vt 0.098264 0.999241
vt 0.755923 0.776548
vt 0.694522 0.896484
vt 0.694522 0.775903
vt 0.927078 0.431853
vt 0.971158 0.308821
vt 0.971158 0.428344
vt 0.521415 0.455980
vt 0.791422 0.164614
vt 0.727403 0.285247
vt 0.727448 0.164588
vt 0.688773 0.430127
vt 0.752773 0.310180
vt 0.752178 0.430758
vt 0.876388 0.432603
vt 0.927078 0.312330
vt 0.827850 0.430465
vt 0.876388 0.313081
vt 0.631079 0.896787
vt 0.631079 0.776205
vt 0.804663 0.778032
vt 0.755923 0.897131
vt 0.220586 0.592587
vt 0.199240 0.713325
vt 0.202114 0.592776
vt 0.088595 0.713512
vt 0.091835 0.577592
vt 0.146863 0.745953
vt 0.266628 0.713513
vt 0.287909 0.701903
vt 0.323466 0.565418
vt 0.323466 0.701374
vt 0.008911 0.586959
vt 0.033640 0.711139
vt 0.006038 0.707506
vt 0.668182 0.164584
vt 0.623827 0.285261
vt 0.623873 0.164602
vt 0.986813 0.776927
vt 0.944637 0.897608
vt 0.944637 0.776948
vt 0.576562 0.897986
vt 0.576562 0.777404
vt 0.919546 0.897611
vt 0.919546 0.776952
vt 0.894455 0.776955
vt 0.844943 0.897605
vt 0.844943 0.776946
vt 0.805953 0.309649
vt 0.805283 0.445603
vt 0.668138 0.285243
vt 0.804663 0.897581
vt 0.804663 0.776922
vt 0.668228 0.043924
vt 0.805954 0.552835
vt 0.623918 0.043942
vt 0.415570 0.497365
vt 0.627295 0.430474
vt 0.626700 0.551051
vt 0.557487 0.569929
vt 0.652013 0.429572
vt 0.576562 0.567602
vt 0.804663 0.656263
vt 0.036880 0.575218
vt 0.223459 0.472040
vt 0.325464 0.772407
vt 0.287909 0.701902
vt 0.325464 0.709885
vt 0.180768 0.713512
vt 0.825953 0.164623
vt 0.797097 0.285261
vt 0.849091 0.034983
vt 0.849087 0.043997
vt 0.558039 0.281825
vt 0.081705 0.390242
vt 0.861230 0.285244
vt 0.894455 0.897614
vt 0.683347 0.308821
vt 0.525522 0.000000
vt 0.210727 0.085855
vt 0.329427 0.565418
vt 0.251787 0.507545
vt 0.329427 0.410981
vt 0.578375 0.431739
vt 0.578970 0.311161
vt 0.251787 0.701464
vt 0.555828 0.708839
vt 0.576561 0.755414
vt 0.517946 0.674714
vt 0.555828 0.852942
vt 0.517946 0.887031
vt 0.469465 0.902759
vt 0.374622 0.871899
vt 0.344659 0.830648
vt 0.334061 0.780785
vt 0.374622 0.689709
vt 0.418768 0.664244
vt 0.469465 0.658940
vt 0.044308 0.204854
vt 0.958404 0.615875
vt 0.593261 0.605067
vt 0.000000 0.425463
vt 0.251787 0.428823
vt 0.000000 0.713949
vt 0.955899 0.584763
vt 0.146223 1.000000
vt 0.827850 0.310943
vt 0.804663 0.898615
vt 0.217712 0.713136
vt 0.287909 0.565947
vt 0.986813 0.897586
vt 0.345485 0.523066
vt 0.287909 0.780390
vn -0.3090 0.0000 -0.9511
vn 0.0095 -0.9995 0.0294
vn 0.0000 -1.0000 0.0000
vn 0.0000 1.0000 0.0000
vn -0.0367 -0.9992 -0.0164
vn 0.5010 0.0000 -0.8654
vn -0.4067 0.0000 -0.9135
vn -0.6783 0.0000 -0.7348
vn 0.0000 0.1246 0.9922
vn -0.9196 0.2551 -0.2988
vn -0.9945 0.0000 -0.1045
vn 0.8660 0.0000 -0.5000
vn -0.9945 0.0000 0.1045
vn -0.7779 -0.3515 0.5209
vn 0.3673 0.2243 0.9027
vn -0.5545 -0.3316 0.7633
vn -0.0563 0.0000 0.9984
vn -0.7641 0.5954 0.2483
vn 0.5165 0.4773 -0.7109
vn -0.2079 0.0000 0.9781
vn 0.5088 0.5008 0.7003
vn -0.6759 0.7370 0.0000
vn 0.4587 0.7280 0.5094
vn -0.1355 0.8988 -0.4169
vn -0.3104 0.8981 0.3116
vn 0.4150 0.8584 -0.3015
vn -0.5054 0.8562 -0.1074
vn 0.3504 0.9014 0.2546
vn -0.0477 0.8896 -0.4542
vn -0.1315 0.9050 0.4047
vn 0.3916 0.9182 -0.0601
vn 0.9859 0.1452 -0.0831
vn -0.8682 -0.1171 -0.4822
vn 0.0000 0.2232 -0.9748
vn -0.4067 0.0000 0.9135
vn 0.4152 0.0569 -0.9079
vn 0.7431 0.0000 -0.6691
vn 0.9507 0.0272 0.3089
vn -0.5656 -0.2722 -0.7785
vn 0.2484 0.5068 -0.8255
vn 0.8977 -0.3304 -0.2917
vn -0.6236 0.6469 0.4389
vn 0.9225 -0.3849 0.0285
vn 0.8660 0.0000 0.5000
vn 0.7380 0.1174 0.6645
vn -0.2065 -0.1160 -0.9715
vn 0.5878 0.0000 0.8090
vn 0.8114 0.2399 -0.5330
vn -0.3424 0.2398 0.9084
vn 0.9945 0.0000 0.1045
vn -0.7431 0.0000 0.6691
vn 0.9511 0.0000 -0.3090
vn 0.4084 0.1120 -0.9059
vn -0.5878 0.0000 -0.8090
vn 0.9511 0.0000 0.3090
vn 0.4067 0.0000 -0.9135
vn -0.9511 0.0000 0.3090
vn 0.2079 0.0000 0.9781
vn -0.6026 0.0000 0.7980
vn 0.1642 0.1313 0.9776
vn 0.6691 0.0000 0.7431
vn -0.9924 0.0000 0.1229
vn -0.9511 0.0000 -0.3090
vn 0.0000 0.0000 1.0000
vn -0.7431 0.0000 -0.6691
vn 1.0000 0.0000 -0.0012
vn -0.8660 0.0000 -0.5000
vn 0.0000 0.0000 -1.0000
vn 0.9929 0.0570 -0.1044
vn 0.8656 0.0324 -0.4997
vn 0.4067 0.0000 0.9135
vn 0.2079 0.0000 -0.9781
vn 0.2655 0.1409 0.9538
vn 0.2824 0.1257 -0.9510
vn -0.8656 0.0324 0.4997
vn -0.5878 0.0077 0.8090
vn -0.2079 0.0000 -0.9781
vn -0.6992 0.1428 -0.7006
vn 0.3747 0.9120 -0.1668
vn -0.9515 0.2360 -0.1974
vn 0.7431 0.0000 0.6691
vn 0.9745 0.1380 0.1770
vn -0.1953 0.9206 0.3382
vn 0.8135 0.2481 -0.5260
vn -0.7691 0.1353 -0.6246
vn 0.9895 0.1275 0.0688
vn -0.0042 -0.9992 0.0400
vn -0.0207 -0.9995 -0.0229
vn -0.4220 0.1104 -0.8999
vn -0.7197 0.1372 -0.6806
vn -0.7379 0.1189 -0.6644
vn -0.7772 0.6293 0.0074
vn 0.7151 0.4951 -0.4934
vn -0.9835 0.1296 0.1264
vn -0.8660 0.0000 0.5000
vn 0.1276 0.3744 0.9185
vn 0.1955 0.3405 0.9197
vn -0.2564 -0.3667 0.8943
vn -0.6069 0.7474 -0.2702
vn 0.2144 0.7202 0.6598
vn 0.0405 0.9220 -0.3850
vn -0.3250 0.9158 0.2361
vn 0.5439 0.8311 -0.1156
vn -0.3916 0.8750 -0.2845
vn 0.2135 0.9043 0.3697
vn 0.1416 0.8889 -0.4357
vn -0.2696 0.9152 0.2994
vn 0.4321 0.9018 0.0000
vn 0.9945 0.0000 -0.1045
vn -0.3568 0.2690 0.8946
vn 0.7223 -0.4180 -0.5509
vn 0.8377 0.3608 0.4100
vn 0.7489 0.1382 0.6481
vn -0.1878 -0.1324 -0.9732
vn 0.5868 0.0570 -0.8077
vn -0.9945 0.0077 0.1045
vn -0.1773 -0.1066 -0.9784
vn 0.4342 0.8984 -0.0666
vn 0.7591 0.1109 0.6415
s off
f 116/1/1 87/2/1 23/3/1
f 86/4/2 23/5/2 87/6/2
f 86/4/3 19/7/3 21/8/3
f 84/9/3 129/10/3 132/11/3
f 83/12/3 17/13/3 84/9/3
f 82/14/3 15/15/3 83/12/3
f 81/16/3 13/17/3 82/14/3
f 80/18/3 11/19/3 81/16/3
f 79/20/3 9/21/3 80/18/3
f 78/22/3 7/23/3 79/20/3
f 77/24/3 5/25/3 78/22/3
f 77/24/3 1/26/3 3/27/3
f 89/28/3 121/29/3 125/30/3
f 2/31/4 24/32/4 16/33/4
f 90/34/3 27/35/3 89/28/3
f 90/34/5 25/36/5 29/37/5
f 93/38/6 88/39/6 90/40/6
f 16/41/7 67/42/7 14/43/7
f 14/43/8 67/42/8 131/44/8
f 38/45/9 54/46/9 39/47/9
f 12/48/10 65/49/10 10/50/10
f 42/51/11 58/52/11 43/53/11
f 33/54/12 49/55/12 34/56/12
f 10/57/13 64/58/13 8/59/13
f 6/60/14 64/58/14 63/61/14
f 38/62/15 52/63/15 53/64/15
f 6/60/16 61/65/16 4/66/16
f 2/67/17 62/68/17 124/69/17
f 42/70/18 56/71/18 57/72/18
f 33/54/19 46/73/19 48/74/19
f 4/66/20 62/68/20 2/67/20
f 30/75/21 74/76/21 28/77/21
f 62/78/22 46/79/22 47/80/22
f 63/81/4 46/79/4 61/82/4
f 64/83/23 48/84/23 63/81/23
f 65/85/24 49/86/24 64/83/24
f 66/87/4 50/88/4 65/85/4
f 67/89/25 130/90/25 131/91/25
f 67/89/26 53/92/26 52/93/26
f 69/94/4 53/92/4 68/95/4
f 70/96/27 54/97/27 69/94/27
f 70/96/28 56/98/28 55/99/28
f 71/100/4 57/101/4 56/98/4
f 73/102/29 57/101/29 72/103/29
f 74/104/30 58/52/30 73/102/30
f 74/104/4 60/105/4 59/106/4
f 124/107/31 47/80/31 123/108/31
f 35/109/32 49/110/32 50/111/32
f 44/112/33 58/113/33 59/114/33
f 16/41/34 69/115/34 68/116/34
f 39/47/35 55/117/35 40/118/35
f 18/119/36 70/120/36 69/121/36
f 22/122/37 70/120/37 20/123/37
f 36/124/38 50/111/38 51/125/38
f 45/126/39 59/114/39 60/127/39
f 31/128/40 47/129/40 46/73/40
f 24/130/41 71/131/41 22/122/41
f 41/132/42 55/117/42 56/71/42
f 24/133/43 73/134/43 72/135/43
f 28/77/44 73/134/44 26/136/44
f 36/124/45 130/137/45 128/138/45
f 45/126/46 123/139/46 122/140/46
f 113/141/20 29/142/20 114/143/20
f 106/144/47 1/145/47 112/146/47
f 126/147/48 89/148/48 125/149/48
f 133/150/49 84/151/49 132/152/49
f 107/153/44 3/154/44 106/144/44
f 108/155/50 5/156/50 107/153/50
f 91/157/51 81/158/51 99/159/51
f 109/160/52 7/161/52 108/162/52
f 92/163/53 90/40/53 89/148/53
f 95/164/54 77/165/54 94/166/54
f 97/167/55 86/168/55 96/169/55
f 110/170/37 9/171/37 109/160/37
f 111/172/56 11/173/56 110/170/56
f 99/159/35 82/174/35 98/175/35
f 102/176/57 80/177/57 91/157/57
f 112/178/58 121/179/58 127/180/58
f 114/143/59 25/181/59 115/182/59
f 100/183/60 83/184/60 84/151/60
f 88/185/61 115/186/61 25/187/61
f 117/188/62 23/189/62 21/190/62
f 105/191/11 79/192/11 102/193/11
f 117/194/63 19/195/63 118/196/63
f 98/175/64 83/197/64 103/198/64
f 118/196/65 129/199/65 134/200/65
f 119/201/7 15/202/7 120/203/7
f 96/169/66 87/204/66 104/205/66
f 94/166/67 78/206/67 105/191/67
f 120/203/68 13/207/68 111/208/68
f 44/112/67 105/191/67 43/209/67
f 35/109/69 104/205/69 34/210/69
f 39/47/64 103/198/64 38/45/64
f 43/209/11 102/193/11 42/211/11
f 34/56/70 101/212/70 33/54/70
f 38/62/71 100/213/71 37/214/71
f 42/70/57 91/157/57 41/132/57
f 40/118/35 98/175/35 39/47/35
f 36/124/55 96/169/55 35/109/55
f 45/126/54 94/166/54 44/112/54
f 31/128/72 92/163/72 32/215/72
f 41/132/51 99/159/51 40/118/51
f 128/138/73 100/213/73 133/216/73
f 122/217/74 92/163/74 126/147/74
f 31/128/6 101/212/6 93/38/6
f 16/41/68 111/208/68 18/218/68
f 14/43/7 120/203/7 16/41/7
f 12/48/65 118/196/65 134/200/65
f 10/50/63 118/196/63 12/48/63
f 10/57/62 116/219/62 117/188/62
f 6/60/75 116/219/75 8/59/75
f 4/66/76 115/182/76 6/60/76
f 30/220/58 112/178/58 127/180/58
f 18/119/56 110/170/56 20/123/56
f 20/123/37 109/160/37 22/122/37
f 22/122/52 108/162/52 24/130/52
f 24/133/50 107/153/50 26/136/50
f 26/136/44 106/144/44 28/77/44
f 28/77/47 112/146/47 30/75/47
f 2/67/20 114/143/20 4/66/20
f 115/221/3 104/222/3 116/223/3
f 122/140/77 95/164/77 45/126/77
f 127/180/58 27/224/58 113/141/58
f 126/225/78 76/226/78 95/164/78
f 122/140/77 47/227/77 32/228/77
f 75/229/79 123/108/79 60/105/79
f 76/230/3 121/29/3 1/26/3
f 126/225/80 125/231/80 76/226/80
f 128/138/81 97/167/81 36/124/81
f 134/200/65 17/232/65 119/201/65
f 97/167/82 133/216/82 85/233/82
f 128/138/81 52/63/81 37/214/81
f 66/87/83 130/90/83 51/234/83
f 85/235/3 129/10/3 19/7/3
f 132/236/84 85/237/84 133/238/84
f 92/163/72 93/38/72 90/40/72
f 95/164/85 76/226/85 77/165/85
f 97/167/86 85/233/86 86/168/86
f 100/213/71 103/239/71 83/240/71
f 116/1/1 104/241/1 87/2/1
f 86/4/87 21/8/87 23/5/87
f 86/4/3 85/235/3 19/7/3
f 84/9/3 17/13/3 129/10/3
f 83/12/3 15/15/3 17/13/3
f 82/14/3 13/17/3 15/15/3
f 81/16/3 11/19/3 13/17/3
f 80/18/3 9/21/3 11/19/3
f 79/20/3 7/23/3 9/21/3
f 78/22/3 5/25/3 7/23/3
f 77/24/3 3/27/3 5/25/3
f 77/24/3 76/230/3 1/26/3
f 89/28/3 27/35/3 121/29/3
f 6/242/4 4/243/4 8/244/4
f 4/243/4 2/31/4 8/244/4
f 2/31/4 30/245/4 28/246/4
f 28/246/4 26/247/4 2/31/4
f 26/247/4 24/32/4 2/31/4
f 24/32/4 22/248/4 16/33/4
f 22/248/4 20/249/4 16/33/4
f 20/249/4 18/250/4 16/33/4
f 16/33/4 14/251/4 12/252/4
f 12/252/4 10/253/4 8/244/4
f 16/33/4 12/252/4 8/244/4
f 8/244/4 2/31/4 16/33/4
f 90/34/3 29/37/3 27/35/3
f 90/34/88 88/254/88 25/36/88
f 93/38/6 101/212/6 88/39/6
f 16/41/89 68/116/89 67/42/89
f 66/255/90 12/48/90 131/44/90
f 12/48/91 14/43/91 131/44/91
f 38/45/9 53/256/9 54/46/9
f 12/48/10 66/255/10 65/49/10
f 42/51/92 57/101/92 58/52/92
f 33/54/93 48/74/93 49/55/93
f 10/57/94 65/257/94 64/58/94
f 6/60/95 8/59/95 64/58/95
f 38/62/71 37/214/71 52/63/71
f 6/60/16 63/61/16 61/65/16
f 75/258/96 30/220/96 124/69/96
f 30/220/97 2/67/97 124/69/97
f 42/70/18 41/132/18 56/71/18
f 33/54/19 31/128/19 46/73/19
f 4/66/98 61/65/98 62/68/98
f 30/75/21 75/259/21 74/76/21
f 62/78/99 61/82/99 46/79/99
f 63/81/4 48/84/4 46/79/4
f 64/83/100 49/86/100 48/84/100
f 65/85/101 50/88/101 49/86/101
f 66/87/4 51/234/4 50/88/4
f 67/89/102 52/93/102 130/90/102
f 67/89/103 68/95/103 53/92/103
f 69/94/4 54/97/4 53/92/4
f 70/96/104 55/99/104 54/97/104
f 70/96/105 71/100/105 56/98/105
f 71/100/4 72/103/4 57/101/4
f 73/102/106 58/52/106 57/101/106
f 74/104/107 59/106/107 58/52/107
f 74/104/4 75/229/4 60/105/4
f 124/107/108 62/78/108 47/80/108
f 35/109/109 34/210/109 49/110/109
f 44/112/67 43/209/67 58/113/67
f 16/41/34 18/218/34 69/115/34
f 39/47/110 54/46/110 55/117/110
f 18/119/56 20/123/56 70/120/56
f 22/122/111 71/131/111 70/120/111
f 36/124/38 35/109/38 50/111/38
f 45/126/39 44/112/39 59/114/39
f 31/128/72 32/215/72 47/129/72
f 24/130/41 72/260/41 71/131/41
f 41/132/51 40/118/51 55/117/51
f 24/133/50 26/136/50 73/134/50
f 28/77/112 74/76/112 73/134/112
f 36/124/113 51/125/113 130/137/113
f 45/126/114 60/127/114 123/139/114
f 113/141/20 27/224/20 29/142/20
f 106/144/47 3/154/47 1/145/47
f 126/147/74 92/163/74 89/148/74
f 133/150/73 100/183/73 84/151/73
f 107/153/44 5/156/44 3/154/44
f 108/155/50 7/261/50 5/156/50
f 91/157/51 80/177/51 81/158/51
f 109/160/52 9/171/52 7/161/52
f 110/170/37 11/173/37 9/171/37
f 111/172/56 13/262/56 11/173/56
f 99/159/35 81/158/35 82/174/35
f 102/176/57 79/263/57 80/177/57
f 112/178/58 1/264/58 121/179/58
f 114/143/59 29/142/59 25/181/59
f 88/185/61 101/265/61 115/186/61
f 117/188/62 116/219/62 23/189/62
f 105/191/11 78/206/11 79/192/11
f 117/194/63 21/266/63 19/195/63
f 98/175/64 82/174/64 83/197/64
f 118/196/65 19/195/65 129/199/65
f 119/201/7 17/232/7 15/202/7
f 96/169/66 86/168/66 87/204/66
f 94/166/67 77/165/67 78/206/67
f 120/203/68 15/202/68 13/207/68
f 44/112/67 94/166/67 105/191/67
f 35/109/66 96/169/66 104/205/66
f 39/47/64 98/175/64 103/198/64
f 43/209/11 105/191/11 102/193/11
f 34/56/70 104/267/70 101/212/70
f 38/62/71 103/239/71 100/213/71
f 42/70/57 102/176/57 91/157/57
f 40/118/35 99/159/35 98/175/35
f 36/124/55 97/167/55 96/169/55
f 45/126/54 95/164/54 94/166/54
f 31/128/72 93/38/72 92/163/72
f 41/132/51 91/157/51 99/159/51
f 128/138/81 37/214/81 100/213/81
f 122/217/77 32/215/77 92/163/77
f 31/128/115 33/54/115 101/212/115
f 16/41/68 120/203/68 111/208/68
f 14/43/7 119/201/7 120/203/7
f 119/201/65 14/43/65 134/200/65
f 14/43/65 12/48/65 134/200/65
f 10/50/63 117/194/63 118/196/63
f 10/57/116 8/59/116 116/219/116
f 6/60/75 115/182/75 116/219/75
f 4/66/59 114/143/59 115/182/59
f 113/141/58 2/67/58 127/180/58
f 2/67/58 30/220/58 127/180/58
f 18/119/56 111/172/56 110/170/56
f 20/123/37 110/170/37 109/160/37
f 22/122/52 109/160/52 108/162/52
f 24/133/50 108/155/50 107/153/50
f 26/136/44 107/153/44 106/144/44
f 28/77/47 106/144/47 112/146/47
f 2/67/20 113/141/20 114/143/20
f 115/221/3 101/268/3 104/222/3
f 122/140/78 126/225/78 95/164/78
f 127/180/58 121/179/58 27/224/58
f 122/140/117 123/139/117 47/227/117
f 75/229/118 124/107/118 123/108/118
f 76/230/3 125/30/3 121/29/3
f 128/138/82 133/216/82 97/167/82
f 134/200/65 129/199/65 17/232/65
f 128/138/119 130/137/119 52/63/119
f 66/87/25 131/91/25 130/90/25
f 85/235/3 132/11/3 129/10/3
