# Blender v3.0.1 OBJ File: 'houseanddooroblig2.blend'
# www.blender.org
o Door_Cube.001
v -0.806619 -0.139542 0.179707
v -0.806619 13.217625 0.179707
v -4.277977 -0.139542 -5.826413
v -4.277977 13.217625 -5.826413
v -0.101052 -0.139542 -0.228089
v -0.101052 13.217625 -0.228089
v -3.572411 -0.139542 -6.234210
v -3.572411 13.217625 -6.234210
vt 0.828238 0.770612
vt 0.452886 0.047888
vt 0.828238 0.047888
vt 0.921816 0.890152
vt 0.103316 0.940090
vt 0.103316 0.890152
vt 0.386715 0.744604
vt 0.038378 0.073896
vt 0.386715 0.073896
vt 0.872332 0.770612
vt 0.872332 0.047888
vt 0.953502 0.890152
vt 0.528409 0.840214
vt 0.953502 0.840214
vt 0.103316 0.840214
vt 0.528409 0.890152
vt 0.103316 0.890152
vt 0.452886 0.770612
vt 0.921816 0.940090
vt 0.038378 0.744604
vt 0.528409 0.890152
vt 0.528409 0.840214
vn -0.8658 0.0000 0.5004
vn -0.5004 0.0000 -0.8658
vn 0.8658 0.0000 -0.5004
vn 0.5004 0.0000 0.8658
vn 0.0000 -1.0000 0.0000
vn 0.0000 1.0000 0.0000
s off
f 2/1/1 3/2/1 1/3/1
f 4/4/2 7/5/2 3/6/2
f 8/7/3 5/8/3 7/9/3
f 6/10/4 1/3/4 5/11/4
f 7/12/5 1/13/5 3/14/5
f 4/15/6 6/16/6 8/17/6
f 2/1/1 4/18/1 3/2/1
f 4/4/2 8/19/2 7/5/2
f 8/7/3 6/20/3 5/8/3
f 6/10/4 2/1/4 1/3/4
f 7/12/5 5/21/5 1/13/5
f 4/15/6 2/22/6 6/16/6
